<svg xmlns="http://www.w3.org/2000/svg" viewBox="0 0 100 100" width="100" height="100">
  <defs>
    <linearGradient id="waterMelonGrad" x1="0%" y1="0%" x2="100%" y2="100%">
      <stop offset="0%" stop-color="#A5D6A7"/>
      <stop offset="100%" stop-color="#4CAF50"/>
    </linearGradient>
  </defs>
  <!-- Хвостик -->
  <path d="M 50 18 Q 54 10 46 8" stroke="#2E7D32" stroke-width="4.5" fill="none" stroke-linecap="round"/>
  <!-- Тело арбуза -->
  <circle cx="50" cy="56" r="36" fill="url(#waterMelonGrad)"/>
  <!-- Волнистые полоски -->
  <path d="M 33 26 Q 36 40 30 56 Q 36 72 33 86" stroke="#1B5E20" stroke-width="4" fill="none" stroke-linecap="round" opacity="0.7"/>
  <path d="M 50 22 Q 54 40 48 56 Q 54 72 50 90" stroke="#1B5E20" stroke-width="4.5" fill="none" stroke-linecap="round" opacity="0.7"/>
  <path d="M 67 26 Q 64 42 70 56 Q 64 72 67 86" stroke="#1B5E20" stroke-width="4" fill="none" stroke-linecap="round" opacity="0.7"/>
  <!-- Большой блик для эффекта гладкости -->
  <ellipse cx="32" cy="38" rx="11" ry="4.5" fill="#FFF" opacity="0.4" transform="rotate(-25 32 38)"/>
  <!-- Мордашка с радостным открытым ротиком -->
  <circle cx="40" cy="56" r="4.5" fill="#2C3E50"/>
  <circle cx="60" cy="56" r="4.5" fill="#2C3E50"/>
  <circle cx="38" cy="53.8" r="1.4" fill="#FFF"/>
  <circle cx="58" cy="53.8" r="1.4" fill="#FFF"/>
  <ellipse cx="30" cy="63" rx="6" ry="3.2" fill="#FF8BA4"/>
  <ellipse cx="70" cy="63" rx="6" ry="3.2" fill="#FF8BA4"/>
  <path d="M 46 61 Q 50 69 54 61 Z" fill="#FF5252" stroke="#2C3E50" stroke-width="2" stroke-linejoin="round"/>
</svg>